<svg xmlns="http://www.w3.org/2000/svg" viewBox="0 0 91 62" fill="currentColor">
    <path
        d="M89.454 57.8866L79.4696 46.0703V25.3572H80.7183C81.7543 25.3572 82.5933 24.5181 82.5933 23.4822C82.5933 22.4463 81.7543 21.6072 80.7183 21.6072H77.5946C76.5586 21.6072 75.7196 22.4463 75.7196 23.4822V46.7922C75.7194 47.2564 75.8918 47.7042 76.2033 48.0484L83.8421 57.2678H60.0952L67.7339 48.0484C68.0454 47.7041 68.2178 47.2564 68.2177 46.7921V23.4822C68.2177 22.4463 67.3786 21.6072 66.3427 21.6072H63.2189C62.1829 21.6072 61.3439 22.4463 61.3439 23.4822C61.3439 24.5182 62.1829 25.3572 63.2189 25.3572H64.4676V46.0704L54.4833 57.8866C54.2404 58.1558 54.0808 58.4896 54.0235 58.8476C53.9663 59.2056 54.014 59.5726 54.1608 59.9041C54.308 60.2356 54.5483 60.5173 54.8525 60.7151C55.1567 60.9128 55.5118 61.018 55.8746 61.0179H88.0627C88.4255 61.018 88.7805 60.9128 89.0847 60.7151C89.3889 60.5173 89.6292 60.2356 89.7765 59.9041C90.0765 59.2272 89.9509 58.4359 89.454 57.8866ZM70.0936 19.7397C72.1599 19.7397 73.8343 18.0644 73.8343 15.9991C73.8343 13.9356 72.1599 12.2604 70.0936 12.2604C68.0264 12.2604 66.353 13.9356 66.353 15.9991C66.353 18.0644 68.0264 19.7397 70.0936 19.7397ZM82.3093 14.1737C85.9636 14.1737 88.9261 11.2244 88.9261 7.58687C88.9261 3.94937 85.9646 1 82.3093 1C78.6558 1 75.6924 3.94937 75.6924 7.58687C75.6924 11.2244 78.6558 14.1737 82.3093 14.1737ZM82.2802 4.73869C83.8421 4.73869 85.1124 6.00338 85.1124 7.55869C85.1124 9.11307 83.8421 10.3787 82.2802 10.3787C80.7183 10.3787 79.448 9.11307 79.448 7.55869C79.4489 6.00338 80.7183 4.73869 82.2802 4.73869Z"
        fill="currentColor" stroke="currentColor" stroke-width="1.49414" />
    <path
        d="M61 35.2857V26.7143H52C51.4427 24.0322 50.3763 21.4819 48.8586 19.2014L55.2443 12.8157L49.1843 6.75572L42.7986 13.1414C40.5178 11.6252 37.9675 10.5603 35.2857 10.0043V1H26.7143V10.0043C24.0325 10.5603 21.4822 11.6252 19.2014 13.1414L12.8157 6.75572L6.75572 12.8157L13.1414 19.2014C11.6237 21.4819 10.5573 24.0322 10 26.7143H1V35.2857H10C10.5571 38.0157 11.6457 40.5529 13.1371 42.7986L6.75142 49.1843L12.8114 55.2443L19.1971 48.8586C21.4789 50.3768 24.0307 51.4432 26.7143 52V61H35.2857V52C37.9675 51.444 40.5178 50.3791 42.7986 48.8629L49.1843 55.2486L55.2443 49.1886L48.8586 42.8029C50.3768 40.5211 51.4432 37.9693 52 35.2857H61ZM31 43.8571C27.5901 43.8571 24.3198 42.5026 21.9086 40.0914C19.4974 37.6802 18.1429 34.4099 18.1429 31C18.1429 27.5901 19.4974 24.3198 21.9086 21.9086C24.3198 19.4974 27.5901 18.1429 31 18.1429C34.4099 18.1429 37.6802 19.4974 40.0914 21.9086C42.5026 24.3198 43.8571 27.5901 43.8571 31C43.8571 34.4099 42.5026 37.6802 40.0914 40.0914C37.6802 42.5026 34.4099 43.8571 31 43.8571Z"
        fill="currentColor" stroke="currentColor" stroke-width="1.875" />
</svg>