<svg xmlns="http://www.w3.org/2000/svg" viewBox="0 0 24 24" fill="currentColor">
    <!-- Círculo de la lupa (tu diseño original exacto) -->
    <path
        d="M21 10C21 10.9193 20.8189 11.8295 20.4672 12.6788C20.1154 13.5281 19.5998 14.2997 18.9497 14.9497C18.2997 15.5998 17.5281 16.1154 16.6788 16.4672C15.8295 16.8189 14.9193 17 14 17C13.0807 17 12.1705 16.8189 11.3212 16.4672C10.4719 16.1154 9.70026 15.5998 9.05025 14.9497C8.40024 14.2997 7.88463 13.5281 7.53284 12.6788C7.18106 11.8295 7 10.9193 7 10C7 9.08075 7.18106 8.1705 7.53284 7.32122C7.88463 6.47194 8.40024 5.70026 9.05025 5.05025C9.70026 4.40024 10.4719 3.88463 11.3212 3.53284C12.1705 3.18106 13.0807 3 14 3C14.9193 3 15.8295 3.18106 16.6788 3.53284C17.5281 3.88463 18.2997 4.40024 18.9497 5.05025C19.5998 5.70026 20.1154 6.47194 20.4672 7.32122C20.8189 8.1705 21 9.08075 21 10Z"
        stroke="currentColor" stroke-linecap="round" stroke-linejoin="round" fill="none" />

    <!-- Mango de la lupa (tu diseño original exacto) -->
    <path d="M5 19L9 15" stroke="currentColor" stroke-linecap="round" stroke-linejoin="round" />

    <!-- Planta dentro de la lupa (tu diseño original exacto) -->
    <path d="M14 12.0417L12.6667 10.9583" stroke="currentColor" stroke-linecap="round" stroke-linejoin="round" />
    <path d="M14 11.5L15.3333 10.4167" stroke="currentColor" stroke-linecap="round" stroke-linejoin="round" />
    <path d="M14 16.375V9.33333" stroke="currentColor" stroke-linecap="round" stroke-linejoin="round" />
    <path
        d="M12.5493 13.6667C12.2576 13.6528 11.9732 13.5872 11.7161 13.4744C11.459 13.3616 11.2354 13.2044 11.0611 13.0139C10.8868 12.8234 10.766 12.6041 10.7072 12.3716C10.6484 12.1391 10.653 11.8989 10.7207 11.6679C10.479 11.5044 10.2882 11.2969 10.1637 11.0622C10.0393 10.8275 9.98472 10.5722 10.0045 10.3172C10.0242 10.0622 10.1177 9.8145 10.2774 9.59433C10.437 9.37416 10.6583 9.18768 10.9233 9.05005C10.6909 8.71457 10.6126 8.32294 10.7024 7.94495C10.7922 7.56695 11.0443 7.22713 11.4137 6.98604C11.7831 6.74496 12.2459 6.61826 12.7195 6.62852C13.1932 6.63879 13.6469 6.78535 14 7.04209C14.3531 6.78575 14.8068 6.63954 15.2801 6.62948C15.7535 6.61941 16.216 6.74615 16.5851 6.98713C16.9543 7.22811 17.2062 7.5677 17.2961 7.94546C17.386 8.32321 17.308 8.71463 17.076 9.05005C17.341 9.18764 17.5624 9.37408 17.7221 9.59423C17.8818 9.81437 17.9754 10.062 17.9952 10.3171C18.015 10.5721 17.9605 10.8274 17.8361 11.0621C17.7117 11.2968 17.521 11.5044 17.2793 11.6679C17.3493 11.9067 17.3518 12.1552 17.2867 12.3949C17.2215 12.6346 17.0904 12.8591 16.9031 13.0517C16.7159 13.2443 16.4773 13.3999 16.2055 13.5069C15.9336 13.6139 15.6354 13.6694 15.3333 13.6694H12.6667L12.5493 13.6667Z"
        stroke="currentColor" stroke-linecap="round" stroke-linejoin="round" fill="none" />
</svg>